<svg width="150" height="21" viewBox="0 0 150 21" fill="none" xmlns="http://www.w3.org/2000/svg">
<g clip-path="url(#clip0)">
<path fill-rule="evenodd" clip-rule="evenodd" d="M1.60747 12.823C1.98073 12.6658 2.11044 13.3092 2.31458 13.6766C2.64237 14.266 3.01079 14.823 3.24492 15.5398C3.48497 16.2771 3.91475 16.2127 4.20437 16.7146C4.34925 16.9661 4.66262 16.8569 4.90026 16.8868C5.19197 16.9234 5.48433 16.9337 5.77636 16.9558C6.05429 17.7767 6.48559 17.4754 6.85339 17.448C7.29969 17.415 7.57823 18.2583 8.0703 18.1039C8.46112 17.9809 8.96396 17.6864 9.28522 18.5987C9.62892 18.61 9.98506 18.5145 10.3129 18.6624C10.669 18.8228 10.9525 19.3865 11.3822 19.2414C11.7665 19.1123 12.171 19.2141 12.5666 19.2141C13.0114 19.2141 13.457 19.2141 13.9024 19.2141C14.2977 19.2141 14.6933 19.2141 15.0888 19.2141C15.5338 19.2141 15.9788 19.2141 16.4236 19.2141C16.8193 19.2141 17.2149 19.2141 17.6101 19.2141C18.0556 19.2141 18.5098 19.1027 18.9429 19.2453C19.3779 19.3884 19.5991 18.5582 20.0098 18.6113C20.6494 18.6944 21.3055 18.7695 21.9329 18.5796C22.2815 18.4742 22.5876 17.9317 23.0029 18.0322C23.3923 18.126 23.7924 18.0527 24.1879 18.0527C24.5835 18.0527 24.979 18.0527 25.3745 18.0527C26.1656 18.0527 26.9567 18.0567 27.7477 18.0492C27.9402 18.0471 28.2251 18.1556 28.31 17.9564C28.6297 17.2048 29.0329 17.5179 29.4042 17.4811C29.8482 17.4377 30.2937 17.4662 30.7392 17.4729C31.0318 17.4776 31.3197 17.5438 31.5334 16.9753C31.5743 16.8661 31.8274 16.911 31.9138 17.0497C32.0699 17.3033 32.2047 17.5786 32.4214 17.4665C32.9473 17.1941 33.3019 17.9841 33.7353 18.2711C33.8202 18.3272 33.8748 18.5824 33.9581 18.6203C34.2794 18.7684 34.6613 18.3237 34.9371 18.8876C35.2341 19.4957 35.5857 19.1181 35.91 19.2066C36.1495 19.2717 36.498 19.075 36.6162 19.324C36.9526 20.0375 37.3436 19.7547 37.7149 19.7843C38.2575 19.8273 38.803 19.8032 39.3456 19.7932C39.8668 19.7836 40.4109 19.9913 40.8549 19.2141C41.7947 19.2141 42.7341 19.1977 43.6736 19.2318C43.8179 19.2376 43.8752 19.5545 43.8736 19.8781C43.8736 20.0347 43.9813 20.3387 43.9979 20.3284C44.5207 19.977 44.8435 21.1792 45.3573 20.9769C45.6423 20.8656 45.9484 20.958 46.2455 20.957C46.8878 20.9552 47.5288 20.9521 48.1715 20.9491C48.7475 19.7696 49.5459 20.8877 50.1114 20.3135C50.7752 19.6383 51.4236 19.9108 52.0813 19.796C52.1301 19.7881 52.1951 19.8354 52.2268 19.7895C53.0227 18.6596 53.9305 19.4502 54.776 19.2162C54.9654 19.1643 55.2459 19.2806 55.3293 19.0761C55.6081 18.3939 55.9626 18.7199 56.2853 18.6337C56.4719 18.5831 56.7504 18.6671 56.8293 18.4597C57.0264 17.9431 57.3902 18.2035 57.5691 17.6719C57.7675 17.0838 58.0508 16.8686 58.4374 16.8444C58.7374 16.8249 58.9784 16.2415 59.354 16.2703C59.7634 16.3013 60.2451 16.6637 60.5833 15.8161C61.0862 15.9403 61.4455 15.2004 61.8939 14.9945C62.1016 14.1124 62.6577 14.9707 62.9171 14.1864C63.0699 13.7208 63.3776 13.99 63.6081 14.006C63.9386 14.0288 64.3447 13.6592 64.5854 14.2305C64.8553 14.8693 65.2508 14.2625 65.513 14.8117C65.8219 15.4562 66.2508 15.0603 66.6252 15.1357C66.9195 15.1944 67.2195 15.1471 67.515 15.1471C68.0589 15.1471 68.6028 15.1471 69.1471 15.1471C69.641 15.1471 70.1382 15.082 70.6292 15.1645C71.1715 15.2559 71.6492 14.9297 72.1431 14.5915C72.3642 14.441 72.637 14.6256 72.8797 14.5506C73.1768 14.4588 73.254 15.2406 73.4963 15.1272C73.8857 14.9458 74.0979 15.6418 74.4162 15.7116C74.7573 15.7862 75.1057 15.7279 75.4528 15.7279C77.4305 15.7279 79.4081 15.6774 81.3858 15.7589C81.9862 15.7838 82.6695 15.1709 83.1906 16.3088C83.4878 16.3088 83.7862 16.3483 84.0805 16.2992C84.4366 16.2405 84.7061 16.4742 85.0122 16.8405C85.2276 17.0984 85.5914 16.9238 85.8853 16.8818C86.2475 16.8295 86.561 16.922 86.7837 17.56C87.0854 18.4284 87.4975 18.8025 88.0402 18.6421C88.2329 18.5852 88.4341 18.6337 88.6329 18.6337C89.1768 18.6337 89.7207 18.6337 90.2634 18.6337C90.8073 18.6337 91.3516 18.6337 91.8955 18.6337C92.4394 18.6337 92.9837 18.6337 93.5276 18.6337C93.952 17.6654 94.5293 18.0381 95.0358 18.0943C95.4585 18.1417 95.7496 17.7074 96.1024 17.4939C96.3707 17.3324 96.5207 16.684 96.8679 16.8818C97.2268 17.086 97.3817 16.0064 97.7845 16.2974C98.1 16.5254 98.2167 15.6788 98.55 15.6927C98.9606 15.7108 99.4455 16.085 99.7699 15.1873C100.113 15.1741 100.456 15.1723 100.799 15.1442C101.175 15.1122 101.598 15.3929 101.864 14.5719C101.97 14.7633 102.074 15.1044 102.185 15.1208C102.628 15.1855 103.075 15.1471 103.519 15.1471C104.015 15.1471 104.518 15.2616 105.001 15.1147C105.477 14.9703 105.739 15.8136 106.217 15.7742C107.747 15.65 109.281 15.7301 110.813 15.7251C111.007 15.7251 111.293 15.836 111.377 15.6383C111.695 14.8807 112.1 15.1695 112.471 15.1592C113.608 15.1264 114.744 15.1428 115.882 15.1521C116.073 15.1528 116.355 15.0692 116.439 15.2709C116.716 15.9452 117.075 15.7784 117.389 15.7009C117.946 15.5647 118.566 16.2412 119.072 15.2147C119.128 15.0998 119.278 15.761 119.518 15.7404C120.012 15.6991 120.507 15.7279 121.002 15.7279C121.446 15.7279 121.891 15.7279 122.337 15.7279C122.83 15.7279 123.326 15.761 123.819 15.7183C124.26 15.6799 124.535 16.5666 125.037 16.3525C125.509 16.1501 126.021 16.3251 126.515 16.3031C126.795 16.2906 127.109 16.5005 127.318 15.8762C127.356 15.7635 127.488 15.7471 127.578 15.7322C128.676 15.549 129.808 16.1935 130.872 15.1656C130.978 15.0624 131.205 15.1129 131.279 15.2694C131.467 15.6675 131.673 15.7866 131.931 15.729C132.301 15.645 132.733 16.0253 133.001 15.1809C133.107 15.3623 133.242 15.7322 133.31 15.6895C133.477 15.5824 133.543 15.0727 133.787 15.146C133.971 15.2018 134.178 15.0055 134.331 15.3847C134.389 15.5259 134.471 15.6778 134.556 15.7172C134.876 15.8663 135.232 15.453 135.536 15.999C135.865 16.5905 136.283 16.1857 136.656 16.3098C136.747 16.3404 136.887 16.3191 136.923 16.4258C137.27 17.4697 138.028 16.2839 138.344 17.4427C138.688 17.4523 139.034 17.4278 139.376 17.4811C139.701 17.5313 140.037 17.2599 140.345 17.8332C140.611 18.3344 141.001 17.9489 141.33 18.0567C141.562 18.1321 141.847 17.7977 142.021 18.2718C142.27 18.9469 142.456 17.9671 142.536 18.1556C142.767 18.6951 143.044 18.6351 143.335 18.634C143.879 18.6314 144.423 18.6237 144.967 18.6382C145.156 18.6435 145.437 18.5682 145.519 18.7719C145.753 19.3545 146.044 19.1798 146.437 19.228C146.566 19.1942 146.887 19.2931 147.017 19.0299C147.211 18.6386 147.489 18.7933 147.643 18.4436C147.787 18.1218 148.045 18.1832 148.137 18.0044C148.404 17.4825 148.895 17.1379 148.866 16.3169C148.837 15.47 149.254 15.024 149.204 14.244C149.406 13.9313 149.506 13.5621 149.492 13.0179C149.472 12.1881 149.419 11.3529 149.76 10.6095C149.865 10.3844 149.862 9.69218 149.626 9.3155C149.335 8.85061 149.143 8.10401 148.698 8.08764C148.311 7.2379 147.646 7.3133 147.266 6.44471C146.923 6.67769 146.806 5.80445 146.5 5.84892C146.255 5.88413 146.061 5.75288 145.835 5.46513C145.623 5.19374 145.278 5.25527 144.993 5.28372C144.502 5.33351 144.152 4.41975 143.652 4.59688C143.456 3.7859 142.971 4.41086 142.757 3.95558C142.507 3.4206 142.232 3.54547 141.95 3.53231C141.613 3.51594 141.252 3.66709 141.033 2.95323C140.963 3.08555 140.886 3.20612 140.824 3.35125C140.709 3.62406 140.487 3.61802 140.434 3.48002C140.22 2.93473 139.949 2.92691 139.649 2.9397C139.154 2.96105 138.66 2.94576 138.165 2.94576C137.27 1.76771 136.27 2.49687 135.321 2.39656C134.089 2.26637 132.849 2.3642 131.613 2.3642C131.416 2.3642 131.158 2.5239 131.031 2.3386C130.272 1.24448 129.422 1.96441 128.621 1.80434C128.082 1.69621 127.535 1.77196 126.991 1.78833C126.692 1.79723 126.456 1.69692 126.195 1.29215C126.022 1.02573 125.628 0.980562 125.41 1.57315C125.383 1.65069 125.342 1.71115 125.307 1.7798C124.839 0.662926 124.202 1.27472 123.65 1.23452C122.317 1.13635 120.98 1.20286 119.645 1.20286C119.3 1.20286 118.942 1.09153 118.61 1.23025C118.175 1.41308 117.957 0.509978 117.543 0.599968C117.104 0.696005 116.654 0.621663 116.21 0.621663C115.714 0.621663 115.215 0.535943 114.728 0.646564C114.265 0.751492 113.914 0.114801 113.513 0.0774533C112.378 -0.0278316 111.237 -0.0228503 110.102 0.0746093C109.701 0.109467 109.354 0.767851 108.888 0.646205C108.452 0.531316 108 0.621663 107.555 0.621663C107.111 0.621663 106.665 0.621663 106.219 0.621663C105.776 0.621663 105.33 0.621663 104.886 0.621663C103.995 0.621663 103.105 0.621663 102.216 0.621663C102.017 0.621663 101.755 0.459827 101.633 0.648344C100.925 1.74814 100.123 1.01897 99.3715 1.18508C98.9317 1.28183 98.4817 1.20286 98.0378 1.20286C97.8045 1.83244 97.4711 1.82604 97.1207 1.79118C96.7768 1.75704 96.4297 1.78371 96.0829 1.78371C95.3919 1.78371 94.6992 1.75242 94.0065 1.79758C93.6853 1.81857 93.4837 2.56765 93.0882 2.38945C92.8065 2.26247 92.4988 2.3642 92.2016 2.3642C91.8561 2.3642 91.5089 2.36241 91.1634 2.36633C91.0667 2.3674 90.9227 2.30979 90.8801 2.40867C90.4906 3.32245 89.9679 2.83939 89.5057 2.93473C89.2134 2.99448 88.9118 2.91517 88.6162 2.9543C88.2919 2.99626 87.913 2.67579 87.6797 3.42346C87.463 3.21752 87.2703 2.82163 87.0309 3.46649C86.9614 3.65537 86.6597 3.52233 86.4642 3.52518C86.1171 3.53015 85.7715 3.5266 85.4244 3.5266C85.0305 3.5266 84.6333 3.5266 84.2394 3.5266C83.8923 3.5266 83.5378 3.43093 83.2028 3.5508C82.7756 3.70339 82.489 3.14353 82.1329 2.97812C81.8057 2.82588 81.4419 2.89098 81.0996 2.9607C80.7297 3.03576 80.3419 2.69001 79.987 3.3324C79.7264 3.8037 79.3293 3.51593 78.9959 3.51664C75.2878 3.53266 71.5793 3.51985 67.8723 3.53871C67.5496 3.54013 67.1723 3.24881 66.9284 3.97192C66.4012 4.23407 65.8707 4.11385 65.3402 4.03809C64.9524 3.13961 64.4236 3.54547 63.9658 3.57676C63.7264 3.59349 63.5276 4.15156 63.1975 4.13128C62.1593 4.06761 61.1211 4.1128 60.0829 4.10141C59.9435 4.10034 59.7317 4.10923 59.6801 3.95273C59.4057 3.12324 58.7569 3.97584 58.5496 2.94576C58.0553 2.94576 57.5597 2.94576 57.0658 2.94576C55.5321 2.94576 54 2.89205 52.4679 2.97421C51.9146 3.0041 51.2813 2.43854 50.8101 3.5266C50.3825 3.61979 49.9175 3.25484 49.5325 3.78411C49.0764 4.41014 48.5853 4.06299 48.1154 4.09001C47.0772 4.14799 46.0394 4.09073 45.0012 4.11777C44.6756 4.12631 44.2979 3.8478 44.0646 4.59083C43.5341 4.74733 43.0053 4.7662 42.4764 4.58124C42.2414 3.83215 41.8614 4.15618 41.5386 4.11705C41.1931 4.07544 40.8459 4.10779 40.5003 4.10779C40.2033 4.10779 39.9063 4.10779 39.6092 4.10779C39.2637 4.10779 38.9091 4.19921 38.5742 4.08398C38.1877 3.95131 37.968 4.58799 37.6543 4.66553C37.2664 4.76228 36.8647 4.70181 36.4692 4.6851C36.0919 4.66981 35.6721 4.9259 35.4053 4.10779C34.9113 4.10779 34.4142 4.03986 33.9233 4.12808C33.4853 4.20704 33.161 3.97549 32.9109 3.28083C32.72 2.75084 32.6305 3.28473 32.4866 3.41278C32.3775 3.50989 32.2138 3.47965 32.0926 3.39892C31.9653 3.31356 31.8622 2.97528 31.744 2.96674C31.103 2.92229 30.4589 2.94576 29.8164 2.94576C29.2329 1.88153 28.5176 2.48763 27.8614 2.38413C27.2719 2.29129 26.6763 2.3642 26.0823 2.3642C25.9338 2.3642 25.7201 2.49011 25.6488 2.345C25.1063 1.24661 24.4334 1.82711 23.8318 1.8136C20.8661 1.74815 17.8992 1.80079 14.9332 1.76734C14.4226 1.76131 13.8536 2.16536 13.4167 1.21603C13.3774 1.13101 13.178 1.16196 13.1455 1.25836C12.906 1.97472 12.5427 1.75669 12.2121 1.78264C11.7875 1.81501 11.3311 1.58595 11.0001 2.3642C10.5227 1.97223 10.2531 3.19083 9.78717 2.95323C9.40603 2.75973 9.14079 3.16131 8.9088 3.70659C8.8203 3.91431 8.72937 4.09607 8.5516 4.12808C8.17168 4.1978 7.73433 3.75781 7.42063 4.34789C7.10916 4.93231 6.77185 4.62712 6.44831 4.67443C6.05473 4.73347 5.65315 4.76334 5.26335 4.66944C4.80555 4.55847 4.39575 4.83448 4.06205 5.30257C3.72896 5.77066 3.28296 5.61664 3.03321 6.02107C2.65889 6.6286 2.29216 6.33941 1.92238 6.42584C1.77599 6.4607 1.62429 6.45964 1.4782 6.42584C1.23527 6.3693 1.12131 6.72712 1.01189 7.00884C0.905351 7.2845 0.893538 7.701 0.787151 7.97879C0.640607 8.36189 0.432838 8.65426 0.276748 9.02703C0.227041 9.14548 0.215823 9.49085 0.261135 9.56946C0.802607 10.5096 0.97992 12.0259 1.60747 12.823Z" fill="#3CEDCE"/>
</g>
<defs>
<clipPath id="clip0">
<rect width="150" height="21" fill="white"/>
</clipPath>
</defs>
</svg>
