<svg width="224" height="212" viewBox="0 0 224 212" fill="none" xmlns="http://www.w3.org/2000/svg">
<path d="M23.1812 38.4754C57.5825 -3.09109 120.189 -11.6065 167.986 15.9981C178.865 22.2806 189.09 28.8687 197.607 37.9382C206.403 47.2998 212.633 58.4679 217.114 73.0274C226.308 102.875 227.598 130.997 212.899 160.693C200.77 185.202 173.191 200.282 152.263 208.049C123.474 218.737 95.08 205.373 77.1634 195.954C64.7384 189.423 50.3222 180.991 37.4592 170.3C24.64 159.646 12.5046 146.047 5.85413 128.928C-6.93477 95.9949 2.29981 63.7061 23.1812 38.4754ZM151.094 45.0534C116.093 24.8359 72.0492 32.1996 49.17 59.8412C34.2721 77.8425 29.798 97.5596 37.2739 116.807C41.1314 126.739 48.7421 135.956 59.0346 144.509C69.2798 153.024 81.341 160.186 92.88 166.254C111.585 176.089 127.261 181.499 140.505 176.583C159.446 169.551 176.486 158.366 182.685 145.842C192.493 126.021 192.408 107.23 184.909 82.8792C181.664 72.3491 177.736 65.9122 173.016 60.8889C168.02 55.5701 161.373 50.99 151.094 45.0534Z" fill="#EFF7F4"/>
</svg>
