<svg width="206" height="186" viewBox="0 0 206 186" fill="none" xmlns="http://www.w3.org/2000/svg">
<path d="M54.3757 179.662C44 176.686 32.52 171.566 24.3083 161.877C9.06851 143.896 0.95982 118.946 0.0799917 94.631C-0.797194 70.3374 5.48843 44.7347 21.4865 26.0355C43.3237 0.509671 75.7505 -3.37537 104.65 2.24286C133.558 7.86374 162.013 23.3854 180.239 41.4168C189.626 50.7054 198.221 63.0893 202.723 76.907C207.278 90.8916 207.796 107.01 199.669 122.232C191.79 136.99 180.146 148.916 167.797 158.287C158.156 165.598 148.343 167.671 141.111 169.197C140.948 169.232 140.784 169.266 140.623 169.3C133.135 170.883 128.339 172.017 123.417 175.624C120.78 177.558 117.895 179.016 116.088 179.927C115.956 179.994 115.826 180.06 115.705 180.121C113.477 181.25 112.714 181.7 112.315 182.018C108.254 185.238 103.406 185.71 101.627 185.864C99.0725 186.086 96.4278 186 94.2454 185.861C91.0748 185.654 87.1777 185.164 85.2516 184.923C84.7258 184.857 84.348 184.809 84.1709 184.79C75.7901 183.921 64.857 182.673 54.3757 179.662ZM61.6442 154.184C69.6577 156.485 78.5115 157.563 86.8844 158.43C87.5449 158.499 88.5622 158.626 89.5556 158.75C90.1131 158.819 90.6627 158.888 91.1382 158.944C92.7341 159.137 94.3934 159.312 95.9522 159.416C96.9351 159.479 97.733 159.503 98.3539 159.498C100.335 158.215 102.262 157.242 103.575 156.577C103.649 156.54 103.72 156.503 103.791 156.466C106.074 155.311 107.086 154.773 107.826 154.232C117.581 147.077 127.367 145.015 134.575 143.494C134.776 143.451 134.976 143.409 135.172 143.369C142.639 141.79 147.228 140.661 151.857 137.149C162.111 129.371 170.785 120.197 176.378 109.721C180.315 102.345 180.5 94.0161 177.61 85.1409C174.664 76.1014 168.693 67.2209 161.683 60.2856C147.223 45.9776 123.496 32.902 99.6221 28.259C75.7399 23.616 54.7852 27.8058 41.5376 43.2931C31.0061 55.6055 25.7747 74.0423 26.4854 93.6716C27.1935 113.282 33.7829 132.141 44.4386 144.713C47.8047 148.683 53.5249 151.855 61.6442 154.184Z" fill="#EFF7F4"/>
</svg>
