<svg width="214" height="63" viewBox="0 0 214 63" fill="none" xmlns="http://www.w3.org/2000/svg">
<path d="M89.96 37.96C86.696 37.96 83.736 37.208 81.08 35.704C78.456 34.168 76.392 32.088 74.888 29.464C73.416 26.808 72.68 23.88 72.68 20.68C72.68 17.608 73.336 14.84 74.648 12.376C75.96 9.88 77.816 7.928 80.216 6.52C82.648 5.08 85.416 4.36 88.52 4.36C91.336 4.36 93.736 4.728 95.72 5.464C97.704 6.2 99.176 7.128 100.136 8.248C100.68 8.952 101.016 9.848 101.144 10.936C101.304 12.024 101.384 13.352 101.384 14.92H99.944C99.336 12.008 98.216 9.88 96.584 8.536C94.984 7.192 92.776 6.52 89.96 6.52C86.376 6.52 83.72 7.864 81.992 10.552C80.264 13.24 79.4 16.616 79.4 20.68C79.4 26.152 80.344 30.088 82.232 32.488C84.152 34.856 86.728 36.04 89.96 36.04C92.456 36.04 94.616 35.624 96.44 34.792V26.248C96.44 24.552 97.08 23.16 98.36 22.072C99.64 20.952 102.104 20.392 105.752 20.392V21.592C103.704 21.592 102.68 23.112 102.68 26.152V34.744C100.856 35.864 98.904 36.68 96.824 37.192C94.744 37.704 92.456 37.96 89.96 37.96ZM119.066 37.48C116.858 37.48 114.922 36.968 113.258 35.944C111.594 34.92 110.298 33.528 109.37 31.768C108.474 29.976 108.026 27.96 108.026 25.72C108.026 23.224 108.474 21.096 109.37 19.336C110.298 17.576 111.562 16.248 113.162 15.352C114.762 14.424 116.57 13.96 118.586 13.96C120.57 13.96 122.362 14.36 123.962 15.16C125.562 15.96 126.826 17.096 127.754 18.568C128.682 20.008 129.146 21.672 129.146 23.56C129.146 24.168 129.114 24.856 129.05 25.624L128.954 26.584H114.506C114.506 29.624 114.97 31.848 115.898 33.256C116.826 34.632 118.122 35.32 119.786 35.32C121.322 35.32 122.602 34.984 123.626 34.312C124.682 33.608 125.69 32.616 126.65 31.336L128.138 32.44C127.21 33.88 126.042 35.08 124.634 36.04C123.258 37 121.402 37.48 119.066 37.48ZM122.666 24.424C122.666 21.416 122.314 19.288 121.61 18.04C120.906 16.76 119.898 16.12 118.586 16.12C117.37 16.12 116.378 16.776 115.61 18.088C114.874 19.368 114.506 21.48 114.506 24.424H122.666ZM143.488 37.48C141.28 37.48 139.344 36.968 137.68 35.944C136.016 34.92 134.72 33.528 133.792 31.768C132.896 29.976 132.448 27.96 132.448 25.72C132.448 23.224 132.896 21.096 133.792 19.336C134.72 17.576 135.984 16.248 137.584 15.352C139.184 14.424 140.992 13.96 143.008 13.96C144.992 13.96 146.784 14.36 148.384 15.16C149.984 15.96 151.248 17.096 152.176 18.568C153.104 20.008 153.568 21.672 153.568 23.56C153.568 24.168 153.536 24.856 153.472 25.624L153.376 26.584H138.928C138.928 29.624 139.392 31.848 140.32 33.256C141.248 34.632 142.544 35.32 144.208 35.32C145.744 35.32 147.024 34.984 148.048 34.312C149.104 33.608 150.112 32.616 151.072 31.336L152.56 32.44C151.632 33.88 150.464 35.08 149.056 36.04C147.68 37 145.824 37.48 143.488 37.48ZM147.088 24.424C147.088 21.416 146.736 19.288 146.032 18.04C145.328 16.76 144.32 16.12 143.008 16.12C141.792 16.12 140.8 16.776 140.032 18.088C139.296 19.368 138.928 21.48 138.928 24.424H147.088ZM175.974 37.48C174.566 37.48 173.27 37.192 172.086 36.616C170.934 36.008 169.846 35.016 168.822 33.64L164.214 27.592V37H157.974V11.56C157.974 9.928 157.75 8.728 157.302 7.96C156.854 7.16 155.958 6.76 154.614 6.76H154.134V5.32H159.894C161.046 5.32 161.926 5.512 162.534 5.896C163.142 6.28 163.574 6.92 163.83 7.816C164.086 8.68 164.214 9.928 164.214 11.56V25.24L170.022 18.136C171.11 16.824 172.134 15.88 173.094 15.304C174.054 14.728 175.334 14.44 176.934 14.44H177.894V15.688C176.934 15.688 176.07 15.88 175.302 16.264C174.534 16.648 173.798 17.256 173.094 18.088L168.438 23.752L174.822 32.2C176.358 34.28 177.846 35.496 179.286 35.848V37C179.03 37.128 178.55 37.24 177.846 37.336C177.174 37.432 176.55 37.48 175.974 37.48ZM183.744 44.92C185.504 44.92 186.928 44.584 188.016 43.912C189.104 43.24 189.984 42.024 190.656 40.264L191.664 37.672L183.024 18.76C181.968 16.456 180.48 15.176 178.56 14.92V13.96H182.784C184.192 13.96 185.44 14.312 186.528 15.016C187.616 15.688 188.448 16.616 189.024 17.8L194.544 29.896L200.4 14.44H202.944L193.248 40.12C192.352 42.616 191.312 44.312 190.128 45.208C188.944 46.136 187.456 46.6 185.664 46.6H183.744V44.92ZM207.673 37.672C206.745 37.672 206.025 37.416 205.513 36.904C205.001 36.36 204.745 35.64 204.745 34.744C204.745 33.848 205.001 33.144 205.513 32.632C206.025 32.088 206.745 31.816 207.673 31.816C208.601 31.816 209.321 32.088 209.833 32.632C210.345 33.144 210.601 33.848 210.601 34.744C210.601 35.64 210.345 36.36 209.833 36.904C209.321 37.416 208.601 37.672 207.673 37.672Z" fill="white"/>
<path d="M48.8438 60.8828C48.9062 60.9922 48.9375 61.125 48.9375 61.2812C48.9375 61.5156 48.8516 61.7188 48.6797 61.8906C48.5234 62.0625 48.3125 62.1484 48.0469 62.1484C47.875 62.1484 47.7188 62.1094 47.5781 62.0312C47.4531 61.9531 47.3516 61.8359 47.2734 61.6797C46.9766 61.1016 46.7109 60.3828 46.4766 59.5234C46.2578 58.6484 46.0625 57.6797 45.8906 56.6172C45.7344 55.5547 45.6016 54.4141 45.4922 53.1953C45.3984 51.9609 45.3203 50.6875 45.2578 49.375C44.0859 49.5312 42.7656 49.7031 41.2969 49.8906C39.8438 50.0781 38.1797 50.2969 36.3047 50.5469C34.9922 50.7344 33.6562 50.8984 32.2969 51.0391C28.9531 54.6797 25.4297 57.4453 21.7266 59.3359C18.0391 61.2109 14.3359 62.1484 10.6172 62.1484C8.96094 62.1484 7.52344 61.9844 6.30469 61.6562C5.10156 61.3438 4.10156 60.9922 3.30469 60.6016C2.52344 60.1953 1.9375 59.8203 1.54688 59.4766C1.14063 59.1328 0.921875 58.9453 0.890625 58.9141C0.734375 58.7578 0.65625 58.5547 0.65625 58.3047C0.65625 58.0547 0.742188 57.8438 0.914063 57.6719C1.08594 57.5 1.28906 57.4141 1.52344 57.4141C1.78906 57.4141 2.00781 57.5078 2.17969 57.6953C2.21094 57.7266 2.39844 57.8906 2.74219 58.1875C3.08594 58.4688 3.59375 58.7734 4.26562 59.1016C4.95312 59.4297 5.82031 59.7266 6.86719 59.9922C7.91406 60.2578 9.15625 60.3906 10.5938 60.3906C12.5625 60.3906 14.4453 60.125 16.2422 59.5938C18.0391 59.0625 19.7344 58.375 21.3281 57.5312C22.9375 56.6719 24.4297 55.6953 25.8047 54.6016C27.1953 53.5078 28.4531 52.3984 29.5781 51.2734C28.4688 51.3672 27.3672 51.4375 26.2734 51.4844C25.1797 51.5312 24.1016 51.5547 23.0391 51.5547C20.9453 51.5547 18.9531 51.4375 17.0625 51.2031C15.1719 50.9688 13.5078 50.5781 12.0703 50.0312C10.6328 49.4688 9.48438 48.7266 8.625 47.8047C7.78125 46.8828 7.35938 45.7344 7.35938 44.3594C7.35938 43.7344 7.48438 43.1094 7.73438 42.4844C8 41.8594 8.3125 41.2969 8.67188 40.7969C9.03125 40.2812 9.40625 39.8672 9.79688 39.5547C10.1875 39.2266 10.5234 39.0625 10.8047 39.0625C11.0234 39.0625 11.2266 39.1406 11.4141 39.2969C11.6016 39.4531 11.6953 39.6641 11.6953 39.9297C11.6953 40.0703 11.6641 40.2109 11.6016 40.3516C11.5391 40.4766 11.4453 40.5781 11.3203 40.6562C11.2891 40.6875 11.1562 40.7969 10.9219 40.9844C10.6875 41.1719 10.4375 41.4297 10.1719 41.7578C9.90625 42.0703 9.66406 42.4531 9.44531 42.9062C9.22656 43.3438 9.11719 43.8203 9.11719 44.3359C9.11719 45.2266 9.42188 46.0156 10.0312 46.7031C10.6562 47.375 11.5547 47.9453 12.7266 48.4141C13.9141 48.8672 15.3672 49.2109 17.0859 49.4453C18.8047 49.6797 20.7656 49.7969 22.9688 49.7969C24.2344 49.7969 25.5703 49.7578 26.9766 49.6797C28.3828 49.6016 29.8672 49.4844 31.4297 49.3281C32.1797 48.5 32.8438 47.7188 33.4219 46.9844C34 46.25 34.4922 45.5938 34.8984 45.0156C35.5703 44.0625 36.2734 43.0469 37.0078 41.9688C37.7422 40.8906 38.4688 39.7969 39.1875 38.6875C39.9219 37.5781 40.6328 36.4844 41.3203 35.4062C42.0234 34.3125 42.6797 33.2891 43.2891 32.3359C43.8984 31.3672 44.4453 30.4922 44.9297 29.7109C45.4141 28.9141 45.8125 28.2578 46.125 27.7422C46.2188 27.3203 46.3594 26.9375 46.5469 26.5938C46.7344 26.2344 47.0391 26.0547 47.4609 26.0547C47.6953 26.0547 47.9219 26.1562 48.1406 26.3594C48.3594 26.5469 48.4688 26.7891 48.4688 27.0859C48.4688 27.3047 48.3906 27.5391 48.2344 27.7891C48.0781 28.0391 47.9297 28.25 47.7891 28.4219C47.7422 28.7188 47.6641 29.3516 47.5547 30.3203C47.4609 31.2891 47.3594 32.4766 47.25 33.8828C47.1562 35.2734 47.0703 36.8125 46.9922 38.5C46.9297 40.1719 46.8984 41.8672 46.8984 43.5859C46.8984 44.2266 46.8984 44.8594 46.8984 45.4844C46.8984 46.1094 46.9141 46.7422 46.9453 47.3828C49.2891 47.0859 51 46.8828 52.0781 46.7734C53.1562 46.6484 53.7266 46.5859 53.7891 46.5859C53.9922 46.5859 54.1875 46.6719 54.375 46.8438C54.5781 47 54.6797 47.2109 54.6797 47.4766C54.6797 47.6953 54.6016 47.8906 54.4453 48.0625C54.3047 48.2188 54.1172 48.3125 53.8828 48.3438C53.6016 48.375 53.2734 48.4141 52.8984 48.4609C52.5234 48.5078 52.0625 48.5625 51.5156 48.625C50.9688 48.6875 50.3281 48.7656 49.5938 48.8594C48.8594 48.9375 48 49.0391 47.0156 49.1641C47.0625 50.4453 47.1328 51.6797 47.2266 52.8672C47.3359 54.0391 47.4609 55.1328 47.6016 56.1484C47.7578 57.1641 47.9375 58.0781 48.1406 58.8906C48.3438 59.7031 48.5781 60.3672 48.8438 60.8828ZM36.0703 48.7891C37.9141 48.5391 39.5859 48.3203 41.0859 48.1328C42.6016 47.9297 43.9688 47.75 45.1875 47.5938C45.1719 46.9219 45.1562 46.25 45.1406 45.5781C45.1406 44.9062 45.1406 44.2266 45.1406 43.5391C45.1406 41.3359 45.1797 39.2344 45.2578 37.2344C45.3359 35.2188 45.4453 33.4688 45.5859 31.9844C44.9609 32.9688 44.2656 34.0625 43.5 35.2656C42.75 36.4531 41.9688 37.6719 41.1562 38.9219C40.3438 40.1562 39.5234 41.3828 38.6953 42.6016C37.8672 43.8203 37.0781 44.9609 36.3281 46.0234C35.9531 46.5547 35.5703 47.0703 35.1797 47.5703C34.7891 48.0703 34.3984 48.5625 34.0078 49.0469C34.3516 49.0156 34.6875 48.9766 35.0156 48.9297C35.3594 48.8828 35.7109 48.8359 36.0703 48.7891ZM63.0469 54.1797C63.8125 57.7891 64.9219 59.5938 66.375 59.5938C66.9375 59.5938 67.4766 59.3906 67.9922 58.9844C68.5078 58.5625 68.9844 58.0547 69.4219 57.4609C69.875 56.8516 70.2734 56.2109 70.6172 55.5391C70.9609 54.8672 71.2422 54.2812 71.4609 53.7812C71.6172 53.4062 71.8906 53.2188 72.2812 53.2188C72.5312 53.2188 72.7422 53.3125 72.9141 53.5C73.0859 53.6875 73.1719 53.8906 73.1719 54.1094C73.1719 54.2344 73.1484 54.3438 73.1016 54.4375C72.9922 54.7031 72.8281 55.0625 72.6094 55.5156C72.4062 55.9531 72.1484 56.4297 71.8359 56.9453C71.5391 57.4453 71.2031 57.9609 70.8281 58.4922C70.4531 59.0234 70.0391 59.5 69.5859 59.9219C69.1328 60.3438 68.6484 60.6953 68.1328 60.9766C67.6328 61.2422 67.1016 61.375 66.5391 61.375C65.4922 61.375 64.5938 61.0156 63.8438 60.2969C63.0938 59.5625 62.4453 58.3594 61.8984 56.6875C61.1484 58.2812 60.3906 59.4375 59.625 60.1562C58.8594 60.875 58.0312 61.2344 57.1406 61.2344C56.6719 61.2344 56.2188 61.1562 55.7812 61C55.3438 60.8594 54.9609 60.6172 54.6328 60.2734C54.3047 59.9297 54.0391 59.4922 53.8359 58.9609C53.6328 58.4141 53.5312 57.75 53.5312 56.9688C53.5312 55.8906 53.7188 54.8984 54.0938 53.9922C54.4688 53.0859 54.9531 52.3125 55.5469 51.6719C56.1406 51.0156 56.7969 50.5078 57.5156 50.1484C58.25 49.7891 58.9766 49.6094 59.6953 49.6094C59.9297 49.6094 60.1328 49.6953 60.3047 49.8672C60.4766 50.0234 60.5625 50.2266 60.5625 50.4766C60.5625 50.6953 60.4922 50.8906 60.3516 51.0625C60.2109 51.2344 60.0234 51.3359 59.7891 51.3672C59.3203 51.4297 58.8203 51.5781 58.2891 51.8125C57.7578 52.0469 57.2656 52.3906 56.8125 52.8438C56.375 53.2812 56.0078 53.8438 55.7109 54.5312C55.4297 55.2188 55.2891 56.0391 55.2891 56.9922C55.2891 57.7734 55.4453 58.3828 55.7578 58.8203C56.0859 59.2578 56.5547 59.4766 57.1641 59.4766C57.4141 59.4766 57.6797 59.4141 57.9609 59.2891C58.2422 59.1484 58.5391 58.8828 58.8516 58.4922C59.1797 58.1016 59.5312 57.5469 59.9062 56.8281C60.2969 56.1094 60.7266 55.1641 61.1953 53.9922C60.9297 52.6172 60.6875 51.0312 60.4688 49.2344C60.25 47.4375 60.1406 45.4297 60.1406 43.2109C60.1406 42.2422 60.1719 41.2344 60.2344 40.1875C60.2969 39.125 60.3984 38.0938 60.5391 37.0938C60.6797 36.0781 60.8672 35.1172 61.1016 34.2109C61.3359 33.3047 61.6172 32.5078 61.9453 31.8203C62.2891 31.1328 62.6875 30.5938 63.1406 30.2031C63.5938 29.7969 64.1094 29.5938 64.6875 29.5938C65.2031 29.5938 65.6406 29.7344 66 30.0156C66.3594 30.2969 66.6484 30.6875 66.8672 31.1875C67.1016 31.6875 67.2734 32.2891 67.3828 32.9922C67.4922 33.6953 67.5469 34.4688 67.5469 35.3125C67.5469 37.125 67.3906 38.9375 67.0781 40.75C66.7656 42.5625 66.375 44.2969 65.9062 45.9531C65.4531 47.6094 64.9688 49.1406 64.4531 50.5469C63.9375 51.9531 63.4688 53.1641 63.0469 54.1797ZM65.7891 35.2891C65.7891 34.8984 65.7734 34.4766 65.7422 34.0234C65.7266 33.5703 65.6719 33.1484 65.5781 32.7578C65.5 32.3516 65.3906 32.0156 65.25 31.75C65.1094 31.4844 64.9219 31.3516 64.6875 31.3516C64.2969 31.3516 63.9297 31.6953 63.5859 32.3828C63.2578 33.0703 62.9688 33.9766 62.7188 35.1016C62.4688 36.2109 62.2656 37.4766 62.1094 38.8984C61.9688 40.3047 61.8984 41.7266 61.8984 43.1641C61.8984 44.5391 61.9531 45.9141 62.0625 47.2891C62.1719 48.6641 62.2969 49.8906 62.4375 50.9688C62.8906 49.7656 63.3203 48.5312 63.7266 47.2656C64.1328 45.9844 64.4844 44.6797 64.7812 43.3516C65.0938 42.0234 65.3359 40.6875 65.5078 39.3438C65.6953 37.9844 65.7891 36.6328 65.7891 35.2891ZM89.6016 54.4609C89.5391 54.5859 89.4062 54.8516 89.2031 55.2578C89.0156 55.6484 88.7656 56.1016 88.4531 56.6172C88.1562 57.1328 87.8047 57.6719 87.3984 58.2344C86.9922 58.7969 86.5391 59.3125 86.0391 59.7812C85.5391 60.25 85 60.6406 84.4219 60.9531C83.8438 61.25 83.2344 61.3984 82.5938 61.3984C81.6875 61.3984 80.9219 61.1094 80.2969 60.5312C79.6875 59.9531 79.2422 59.2266 78.9609 58.3516C78.4297 59.2422 77.7969 59.9531 77.0625 60.4844C76.3281 61 75.5938 61.2578 74.8594 61.2578C74.2812 61.2578 73.7578 61.1562 73.2891 60.9531C72.8203 60.7344 72.4219 60.4375 72.0938 60.0625C71.7656 59.6719 71.5078 59.2188 71.3203 58.7031C71.1484 58.1875 71.0625 57.625 71.0625 57.0156C71.0625 55.7969 71.2656 54.7266 71.6719 53.8047C72.0938 52.8672 72.625 52.0859 73.2656 51.4609C73.9062 50.8359 74.6094 50.3672 75.375 50.0547C76.1562 49.7422 76.9062 49.5859 77.625 49.5859C78.1094 49.5859 78.5547 49.6562 78.9609 49.7969C79.3672 49.9219 79.7109 50.0625 79.9922 50.2188C80.2891 50.375 80.5156 50.5234 80.6719 50.6641C80.8281 50.7891 80.9141 50.8594 80.9297 50.875C81.1016 51.0781 81.1875 51.2891 81.1875 51.5078C81.1875 51.7422 81.1016 51.9531 80.9297 52.1406C80.7578 52.3125 80.5547 52.3984 80.3203 52.3984C80.0703 52.3984 79.8594 52.3125 79.6875 52.1406C79.6562 52.1094 79.5859 52.0547 79.4766 51.9766C79.3672 51.8828 79.2188 51.7891 79.0312 51.6953C78.8438 51.6016 78.6172 51.5234 78.3516 51.4609C78.1016 51.3828 77.8125 51.3438 77.4844 51.3438C77 51.3438 76.4844 51.4531 75.9375 51.6719C75.3906 51.8906 74.8906 52.2344 74.4375 52.7031C73.9844 53.1562 73.6016 53.7344 73.2891 54.4375C72.9922 55.125 72.8438 55.9453 72.8438 56.8984C72.8438 57.1953 72.875 57.5 72.9375 57.8125C73 58.1094 73.1094 58.3828 73.2656 58.6328C73.4219 58.8828 73.6328 59.0859 73.8984 59.2422C74.1641 59.3984 74.4922 59.4766 74.8828 59.4766C75.1641 59.4766 75.4844 59.3828 75.8438 59.1953C76.2188 59.0078 76.5703 58.7188 76.8984 58.3281C77.2422 57.9375 77.5469 57.4453 77.8125 56.8516C78.0938 56.2578 78.2891 55.5547 78.3984 54.7422C78.4297 54.5234 78.5312 54.3438 78.7031 54.2031C78.875 54.0469 79.0781 53.9688 79.3125 53.9688C79.5312 53.9688 79.7188 54.0547 79.875 54.2266C80.0469 54.3984 80.1406 54.5938 80.1562 54.8125C80.1719 55.1094 80.2031 55.5312 80.25 56.0781C80.2969 56.6094 80.3984 57.1406 80.5547 57.6719C80.7266 58.2031 80.9766 58.6641 81.3047 59.0547C81.6328 59.4453 82.0859 59.6406 82.6641 59.6406C83.0391 59.6406 83.4062 59.5391 83.7656 59.3359C84.1406 59.1328 84.5 58.8672 84.8438 58.5391C85.2031 58.1953 85.5391 57.8125 85.8516 57.3906C86.1797 56.9531 86.4766 56.5156 86.7422 56.0781C87.0078 55.6406 87.2422 55.2188 87.4453 54.8125C87.6484 54.4062 87.8203 54.0547 87.9609 53.7578C88.0391 53.5859 88.1484 53.4531 88.2891 53.3594C88.4453 53.2656 88.6094 53.2188 88.7812 53.2188C89.0469 53.2188 89.2578 53.3203 89.4141 53.5234C89.5859 53.7109 89.6719 53.9141 89.6719 54.1328C89.6719 54.2422 89.6484 54.3516 89.6016 54.4609ZM93.3984 58.9141C93.6328 58.4453 93.9297 57.8672 94.2891 57.1797C94.6641 56.4766 95.0469 55.7734 95.4375 55.0703C95.8438 54.3672 96.2344 53.7031 96.6094 53.0781C97 52.4531 97.3281 51.9766 97.5938 51.6484C98.0469 51.1016 98.5156 50.7109 99 50.4766C99.4844 50.2422 99.9297 50.125 100.336 50.125C100.742 50.125 101.086 50.2109 101.367 50.3828C101.664 50.5547 101.906 50.7891 102.094 51.0859C102.281 51.3672 102.422 51.7031 102.516 52.0938C102.609 52.4688 102.656 52.875 102.656 53.3125C102.656 53.5625 102.641 53.8906 102.609 54.2969C102.594 54.7031 102.57 55.1406 102.539 55.6094C102.523 56.0781 102.5 56.5625 102.469 57.0625C102.453 57.5625 102.438 58.0312 102.422 58.4688C102.656 58 102.922 57.4844 103.219 56.9219C103.516 56.3438 103.812 55.7734 104.109 55.2109C104.422 54.6484 104.719 54.125 105 53.6406C105.281 53.1406 105.539 52.7344 105.773 52.4219C106.445 51.5 107.07 50.8828 107.648 50.5703C108.242 50.2578 108.766 50.1016 109.219 50.1016C109.75 50.1016 110.188 50.2031 110.531 50.4062C110.875 50.5938 111.141 50.8438 111.328 51.1562C111.531 51.4531 111.672 51.7891 111.75 52.1641C111.828 52.5391 111.867 52.8984 111.867 53.2422C111.867 53.7734 111.828 54.3281 111.75 54.9062C111.672 55.4844 111.633 56.1719 111.633 56.9688C111.633 57.2969 111.648 57.625 111.68 57.9531C111.711 58.2812 111.773 58.5703 111.867 58.8203C111.977 59.0703 112.141 59.2734 112.359 59.4297C112.578 59.5859 112.875 59.6641 113.25 59.6641C113.656 59.6641 114.055 59.5625 114.445 59.3594C114.836 59.1406 115.211 58.8594 115.57 58.5156C115.93 58.1719 116.266 57.7812 116.578 57.3438C116.906 56.9062 117.203 56.4688 117.469 56.0312C117.734 55.5938 117.969 55.1797 118.172 54.7891C118.375 54.3828 118.539 54.0391 118.664 53.7578C118.742 53.5859 118.852 53.4531 118.992 53.3594C119.133 53.2656 119.289 53.2188 119.461 53.2188C119.727 53.2188 119.938 53.3203 120.094 53.5234C120.266 53.7109 120.352 53.9141 120.352 54.1328C120.352 54.2422 120.328 54.3516 120.281 54.4609C120.219 54.5859 120.094 54.8516 119.906 55.2578C119.719 55.6484 119.469 56.1016 119.156 56.6172C118.844 57.1172 118.477 57.6484 118.055 58.2109C117.648 58.7734 117.195 59.2969 116.695 59.7812C116.195 60.25 115.656 60.6406 115.078 60.9531C114.5 61.25 113.891 61.3984 113.25 61.3984C112.562 61.3984 112 61.2734 111.562 61.0234C111.141 60.7891 110.797 60.4688 110.531 60.0625C110.281 59.6562 110.109 59.1875 110.016 58.6562C109.922 58.125 109.875 57.5703 109.875 56.9922C109.875 56.2266 109.914 55.5234 109.992 54.8828C110.07 54.2266 110.109 53.7188 110.109 53.3594C110.109 52.9688 110.07 52.6719 109.992 52.4688C109.93 52.2656 109.844 52.125 109.734 52.0469C109.641 51.9531 109.547 51.9062 109.453 51.9062C109.359 51.8906 109.289 51.8828 109.242 51.8828C108.867 51.8828 108.469 52.0938 108.047 52.5156C107.641 52.9219 107.219 53.4688 106.781 54.1562C106.344 54.8438 105.891 55.625 105.422 56.5C104.969 57.375 104.508 58.2656 104.039 59.1719C103.773 59.6719 103.547 60.0859 103.359 60.4141C103.188 60.7422 103.016 61 102.844 61.1875C102.688 61.375 102.531 61.5078 102.375 61.5859C102.219 61.6641 102.047 61.7031 101.859 61.7031C101.453 61.7031 101.141 61.5625 100.922 61.2812C100.719 61 100.617 60.6328 100.617 60.1797C100.617 59.9453 100.625 59.6328 100.641 59.2422C100.656 58.8516 100.672 58.4219 100.688 57.9531C100.703 57.4844 100.727 57 100.758 56.5C100.789 56 100.812 55.5234 100.828 55.0703C100.844 54.6016 100.859 54.1875 100.875 53.8281C100.891 53.4688 100.898 53.1953 100.898 53.0078C100.898 52.6016 100.828 52.3125 100.688 52.1406C100.547 51.9531 100.383 51.8594 100.195 51.8594C100.023 51.8594 99.8281 51.9219 99.6094 52.0469C99.4062 52.1719 99.1641 52.4141 98.8828 52.7734C98.6641 53.0547 98.3828 53.4688 98.0391 54.0156C97.7109 54.5469 97.3594 55.1406 96.9844 55.7969C96.6094 56.4531 96.2344 57.125 95.8594 57.8125C95.5 58.5 95.1875 59.1172 94.9219 59.6641C94.5938 60.3203 94.2656 60.7656 93.9375 61C93.6094 61.25 93.2891 61.375 92.9766 61.375C92.5234 61.375 92.1875 61.2422 91.9688 60.9766C91.75 60.6953 91.6406 60.3281 91.6406 59.875C91.6406 59.8281 91.6484 59.5469 91.6641 59.0312C91.6953 58.5156 91.7266 57.8906 91.7578 57.1562C91.7891 56.4062 91.8203 55.6094 91.8516 54.7656C91.8984 53.9219 91.9375 53.1328 91.9688 52.3984C91.9844 52.0078 91.9688 51.6484 91.9219 51.3203C91.875 50.9922 91.8125 50.7969 91.7344 50.7344C91.6094 50.7656 91.3594 51.0547 90.9844 51.6016C90.625 52.1484 90.1641 53.1016 89.6016 54.4609C89.5234 54.6328 89.4062 54.7656 89.25 54.8594C89.0938 54.9531 88.9297 55 88.7578 55C88.4922 55 88.2812 54.9141 88.125 54.7422C87.9688 54.5547 87.8906 54.3438 87.8906 54.1094C87.8906 54 87.9141 53.8828 87.9609 53.7578C88.6641 52.0859 89.3359 50.8594 89.9766 50.0781C90.6172 49.2812 91.2422 48.8828 91.8516 48.8828C92.2109 48.8828 92.5078 48.9688 92.7422 49.1406C92.9922 49.2969 93.1875 49.5078 93.3281 49.7734C93.4688 50.0234 93.5703 50.3125 93.6328 50.6406C93.6953 50.9688 93.7266 51.2891 93.7266 51.6016C93.7266 52.9922 93.6875 54.2656 93.6094 55.4219C93.5469 56.5781 93.4766 57.7422 93.3984 58.9141ZM121.289 52.3281C121.195 52.5781 121.078 52.8594 120.938 53.1719C120.812 53.4844 120.664 53.8125 120.492 54.1562C120.352 54.4219 120.203 54.6328 120.047 54.7891C119.906 54.9297 119.719 55 119.484 55C119.219 55 119.008 54.9219 118.852 54.7656C118.695 54.5938 118.617 54.3984 118.617 54.1797C118.617 54.1016 118.625 54.0391 118.641 53.9922C118.656 53.9297 118.695 53.8359 118.758 53.7109C119.164 52.9297 119.461 52.25 119.648 51.6719C119.852 51.0781 120.016 50.4609 120.141 49.8203C120.031 49.4609 119.953 49.1562 119.906 48.9062C119.859 48.6562 119.836 48.3984 119.836 48.1328C119.836 47.6172 119.945 47.2031 120.164 46.8906C120.383 46.5625 120.688 46.3984 121.078 46.3984C121.438 46.3984 121.719 46.5547 121.922 46.8672C122.141 47.1797 122.25 47.5625 122.25 48.0156C122.25 48.2656 122.227 48.5156 122.18 48.7656C122.133 49.0156 122.07 49.3281 121.992 49.7031C122.352 50.5938 122.711 51.3828 123.07 52.0703C123.43 52.7578 123.75 53.3906 124.031 53.9688C124.312 54.5312 124.539 55.0625 124.711 55.5625C124.898 56.0625 124.992 56.5625 124.992 57.0625C124.992 57.7188 124.859 58.3438 124.594 58.9375C124.328 59.5312 123.891 60.0312 123.281 60.4375C123.359 60.4531 123.438 60.4609 123.516 60.4609C123.594 60.4609 123.672 60.4609 123.75 60.4609C124.641 60.4609 125.461 60.2578 126.211 59.8516C126.961 59.4453 127.633 58.9219 128.227 58.2812C128.836 57.625 129.375 56.9062 129.844 56.125C130.312 55.3281 130.719 54.5391 131.062 53.7578C131.219 53.3984 131.438 53.2188 131.719 53.2188C131.984 53.2188 132.188 53.3125 132.328 53.5C132.484 53.6875 132.562 53.8906 132.562 54.1094C132.562 54.2344 132.539 54.3516 132.492 54.4609C132.32 54.8828 132.094 55.3672 131.812 55.9141C131.547 56.4453 131.219 57 130.828 57.5781C130.453 58.1406 130.016 58.6953 129.516 59.2422C129.016 59.7891 128.453 60.2812 127.828 60.7188C127.219 61.1406 126.547 61.4766 125.812 61.7266C125.078 61.9922 124.273 62.125 123.398 62.125C122.352 62.125 121.375 61.9375 120.469 61.5625C119.578 61.2031 118.852 60.6016 118.289 59.7578C118.195 59.6172 118.148 59.4688 118.148 59.3125C118.148 59.0781 118.234 58.875 118.406 58.7031C118.594 58.5156 118.805 58.4219 119.039 58.4219C119.289 58.4219 119.5 58.5078 119.672 58.6797C119.688 58.7109 119.742 58.7656 119.836 58.8438C119.93 58.9062 120.039 58.9844 120.164 59.0781C120.305 59.1562 120.461 59.2266 120.633 59.2891C120.82 59.3516 121.008 59.3828 121.195 59.3828C121.57 59.3828 121.883 59.3047 122.133 59.1484C122.398 58.9922 122.609 58.8047 122.766 58.5859C122.922 58.3516 123.031 58.1094 123.094 57.8594C123.172 57.5938 123.211 57.3672 123.211 57.1797C123.211 56.7891 123.148 56.3984 123.023 56.0078C122.898 55.6172 122.734 55.2266 122.531 54.8359C122.344 54.4453 122.133 54.0469 121.898 53.6406C121.68 53.2188 121.477 52.7812 121.289 52.3281Z" fill="white"/>
<circle cx="13" cy="10" r="10" fill="white"/>
</svg>
